<svg xmlns="http://www.w3.org/2000/svg" width="1024" height="1024" viewBox="0 0 1024 1024">
  <defs>
    <radialGradient id="aGrad" cx="50%" cy="30%" r="78%">
      <stop offset="0%" stop-color="#3DE7C9"></stop>
      <stop offset="55%" stop-color="#12B295"></stop>
      <stop offset="100%" stop-color="#0A6555"></stop>
    </radialGradient>
    <linearGradient id="glyphGrad" x1="0%" y1="0%" x2="0%" y2="100%">
      <stop offset="0%" stop-color="#FFFFFF"></stop>
      <stop offset="100%" stop-color="#EEF1F6"></stop>
    </linearGradient>
    <filter id="glyphShadow" x="-30%" y="-30%" width="160%" height="160%">
      <feDropShadow dx="0" dy="6" stdDeviation="10" flood-color="#000000" flood-opacity="0.18"></feDropShadow>
    </filter>
  </defs>
  <rect x="112" y="112" width="800" height="800" rx="182" fill="url(#aGrad)"></rect>
  <g filter="url(#glyphShadow)">
    <rect x="402" y="222" width="70" height="86" rx="13" fill="#FFFFFF" opacity="0.95" transform="rotate(-14 437 265)"></rect>
    <rect x="486" y="198" width="70" height="86" rx="13" fill="#FFFFFF" opacity="0.82" transform="rotate(6 521 241)"></rect>
    <rect x="558" y="230" width="70" height="86" rx="13" fill="#FFFFFF" opacity="0.66" transform="rotate(17 593 273)"></rect>
    <path d="M322 350 H702 L560 548 L560 606 Q560 626 540 626 L484 626 Q464 626 464 606 L464 548 Z" fill="url(#glyphGrad)" stroke-linejoin="round"></path>
    <rect x="500" y="640" width="24" height="34" rx="12" fill="#FFFFFF"></rect>
    <rect x="430" y="690" width="164" height="26" rx="13" fill="#FFFFFF"></rect>
    <rect x="457" y="732" width="110" height="26" rx="13" fill="#FFFFFF" opacity="0.8"></rect>
  </g>
</svg>